<svg width="35" height="35" viewBox="0 0 35 35" fill="#A5ABB6" xmlns="http://www.w3.org/2000/svg">
<path d="M13.1105 31.3542C10.6897 31.3542 8.25428 30.4354 6.4022 28.5833C2.71261 24.8792 2.71261 18.8708 6.4022 15.1813C6.82511 14.7583 7.52511 14.7583 7.94803 15.1813C8.37095 15.6042 8.37095 16.3042 7.94803 16.7271C5.10428 19.5708 5.10428 24.1938 7.94803 27.0375C10.7918 29.8813 15.4147 29.8813 18.2584 27.0375C19.6293 25.6667 20.3876 23.8292 20.3876 21.875C20.3876 19.9354 19.6293 18.0979 18.2584 16.7125C17.8355 16.2896 17.8355 15.5896 18.2584 15.1667C18.6814 14.7438 19.3814 14.7438 19.8043 15.1667C21.598 16.9604 22.5751 19.3375 22.5751 21.875C22.5751 24.4125 21.5834 26.7896 19.8043 28.5833C17.9668 30.4354 15.5459 31.3542 13.1105 31.3542Z" fill="#A5ABB6"/>
<path d="M27.8105 20.65C27.5334 20.65 27.2564 20.5479 27.0376 20.3292C26.6147 19.9062 26.6147 19.2062 27.0376 18.7833C30.0272 15.7937 30.0272 10.9375 27.0376 7.9625C24.048 4.97291 19.1918 4.97291 16.2168 7.9625C14.773 9.40625 13.9709 11.3312 13.9709 13.3729C13.9709 15.4146 14.773 17.3396 16.2168 18.7833C16.6397 19.2062 16.6397 19.9062 16.2168 20.3292C15.7939 20.7521 15.0939 20.7521 14.6709 20.3292C12.8189 18.4771 11.7834 15.9979 11.7834 13.3729C11.7834 10.7479 12.8043 8.26875 14.6709 6.41666C18.5064 2.58125 24.748 2.58125 28.598 6.41666C32.4334 10.2521 32.4334 16.5083 28.598 20.3437C28.3793 20.5479 28.0876 20.65 27.8105 20.65Z" fill="#A5ABB6"/>
</svg>
