<svg width="35" height="35" viewBox="0 0 29 29" fill="#A5ABB6" xmlns="http://www.w3.org/2000/svg">
<path fill-rule="evenodd" clip-rule="evenodd" d="M2.71875 1.55357C2.71875 1.14154 2.57553 0.746382 2.3206 0.455031C2.06567 0.163679 1.7199 0 1.35938 0C0.998846 0 0.653084 0.163679 0.398152 0.455031C0.143219 0.746382 0 1.14154 0 1.55357L0 27.4464C0 28.304 0.609 29 1.35938 29H27.6406C28.0012 29 28.3469 28.8363 28.6018 28.545C28.8568 28.2536 29 27.8585 29 27.4464C29 27.0344 28.8568 26.6392 28.6018 26.3479C28.3469 26.0565 28.0012 25.8929 27.6406 25.8929H2.71875V1.55357ZM28.6012 6.79429C28.8414 6.49978 28.9721 6.11026 28.9659 5.70777C28.9597 5.30529 28.817 4.92128 28.5679 4.63664C28.3189 4.352 27.9829 4.18895 27.6307 4.18185C27.2785 4.17475 26.9377 4.32415 26.68 4.59857L18.125 14.3757L13.6481 9.25928C13.3932 8.96835 13.0477 8.80494 12.6875 8.80494C12.3273 8.80494 11.9818 8.96835 11.7269 9.25928L5.83625 15.9914C5.59613 16.2859 5.46541 16.6755 5.47162 17.0779C5.47783 17.4804 5.6205 17.8644 5.86956 18.1491C6.11862 18.4337 6.45463 18.5968 6.8068 18.6039C7.15897 18.611 7.49981 18.4616 7.7575 18.1871L12.6875 12.5529L17.1644 17.6693C17.4193 17.9602 17.7648 18.1236 18.125 18.1236C18.4852 18.1236 18.8307 17.9602 19.0856 17.6693L28.6012 6.79429Z" fill="#A5ABB6"/>
</svg>
