<svg width="36" height="35" viewBox="0 0 36 35" fill="none" xmlns="http://www.w3.org/2000/svg">
<path d="M12 8.38538C11.385 8.38538 10.875 7.88954 10.875 7.29163V2.91663C10.875 2.31871 11.385 1.82288 12 1.82288C12.615 1.82288 13.125 2.31871 13.125 2.91663V7.29163C13.125 7.88954 12.615 8.38538 12 8.38538Z" fill="#A5ABB6"/>
<path d="M24 8.38538C23.385 8.38538 22.875 7.88954 22.875 7.29163V2.91663C22.875 2.31871 23.385 1.82288 24 1.82288C24.615 1.82288 25.125 2.31871 25.125 2.91663V7.29163C25.125 7.88954 24.615 8.38538 24 8.38538Z" fill="#A5ABB6"/>
<path d="M30.75 14.35H5.25C4.635 14.35 4.125 13.8541 4.125 13.2562C4.125 12.6583 4.635 12.1625 5.25 12.1625H30.75C31.365 12.1625 31.875 12.6583 31.875 13.2562C31.875 13.8541 31.365 14.35 30.75 14.35Z" fill="#A5ABB6"/>
<path d="M24 33.177H12C6.525 33.177 3.375 30.1145 3.375 24.7916V12.3958C3.375 7.07288 6.525 4.01038 12 4.01038H24C29.475 4.01038 32.625 7.07288 32.625 12.3958V24.7916C32.625 30.1145 29.475 33.177 24 33.177ZM12 6.19788C7.71 6.19788 5.625 8.22496 5.625 12.3958V24.7916C5.625 28.9625 7.71 30.9895 12 30.9895H24C28.29 30.9895 30.375 28.9625 30.375 24.7916V12.3958C30.375 8.22496 28.29 6.19788 24 6.19788H12Z" fill="#A5ABB6"/>
</svg>
