<svg width="35" height="35" viewBox="0 0 35 35" fill="#A5ABB6" xmlns="http://www.w3.org/2000/svg">
<path d="M26.2496 11.5355C26.2059 11.5355 26.1767 11.5355 26.133 11.5355H26.0601C23.3038 11.448 21.2476 9.31878 21.2476 6.69378C21.2476 4.01044 23.4351 1.83752 26.1038 1.83752C28.7726 1.83752 30.9601 4.02503 30.9601 6.69378C30.9455 9.33336 28.8892 11.4625 26.2642 11.55C26.2642 11.5354 26.2642 11.5355 26.2496 11.5355ZM26.1038 4.01045C24.6309 4.01045 23.4351 5.20629 23.4351 6.6792C23.4351 8.12295 24.558 9.28962 26.0017 9.34795C26.0163 9.33337 26.133 9.33337 26.2642 9.34795C27.6788 9.27504 28.7726 8.10837 28.7871 6.6792C28.7871 5.20629 27.5913 4.01045 26.1038 4.01045Z" fill="#A5ABB6"/>
<path d="M26.2646 22.2833C25.6958 22.2833 25.1271 22.2396 24.5583 22.1375C23.9604 22.0354 23.5666 21.4667 23.6687 20.8688C23.7708 20.2708 24.3396 19.8771 24.9375 19.9792C26.7312 20.2854 28.6271 19.95 29.8958 19.1042C30.5812 18.6521 30.9458 18.0833 30.9458 17.5146C30.9458 16.9458 30.5666 16.3917 29.8958 15.9396C28.6271 15.0938 26.7021 14.7583 24.8937 15.0792C24.2958 15.1958 23.7271 14.7875 23.625 14.1896C23.5229 13.5917 23.9167 13.0229 24.5146 12.9208C26.8917 12.4979 29.3562 12.95 31.1062 14.1167C32.3896 14.9771 33.1333 16.2021 33.1333 17.5146C33.1333 18.8125 32.4042 20.0521 31.1062 20.9271C29.7792 21.8021 28.0583 22.2833 26.2646 22.2833Z" fill="#A5ABB6" />
<path d="M8.7062 11.5354C8.69162 11.5354 8.67704 11.5354 8.67704 11.5354C6.05204 11.4479 3.99578 9.31877 3.9812 6.69377C3.9812 4.01043 6.1687 1.82294 8.83745 1.82294C11.5062 1.82294 13.6937 4.01044 13.6937 6.67919C13.6937 9.31877 11.6375 11.4479 9.01245 11.5354L8.7062 10.4417L8.80829 11.5354C8.77912 11.5354 8.73537 11.5354 8.7062 11.5354ZM8.85204 9.34794C8.93954 9.34794 9.01245 9.34793 9.09996 9.36252C10.3979 9.30418 11.5354 8.13752 11.5354 6.69377C11.5354 5.22085 10.3395 4.02501 8.86662 4.02501C7.3937 4.02501 6.19787 5.22085 6.19787 6.69377C6.19787 8.12293 7.3062 9.27502 8.72079 9.36252C8.73537 9.34793 8.7937 9.34794 8.85204 9.34794Z" fill="#A5ABB6"/>
<path d="M8.69175 22.2833C6.898 22.2833 5.17716 21.8021 3.85008 20.9271C2.56675 20.0667 1.823 18.8271 1.823 17.5146C1.823 16.2167 2.56675 14.9771 3.85008 14.1167C5.60008 12.95 8.06466 12.4979 10.4417 12.9208C11.0397 13.0229 11.4334 13.5917 11.3313 14.1896C11.2292 14.7875 10.6605 15.1958 10.0626 15.0792C8.25425 14.7583 6.34383 15.0938 5.0605 15.9396C4.37508 16.3917 4.0105 16.9458 4.0105 17.5146C4.0105 18.0833 4.38967 18.6521 5.0605 19.1042C6.32925 19.95 8.22508 20.2854 10.0188 19.9792C10.6167 19.8771 11.1855 20.2854 11.2876 20.8688C11.3897 21.4667 10.9959 22.0354 10.398 22.1375C9.82925 22.2396 9.2605 22.2833 8.69175 22.2833Z" fill="#A5ABB6"/>
<path d="M17.4996 22.4291C17.4559 22.4291 17.4267 22.4291 17.383 22.4291H17.3101C14.5538 22.3416 12.4976 20.2125 12.4976 17.5875C12.4976 14.9041 14.6851 12.7312 17.3538 12.7312C20.0226 12.7312 22.2101 14.9187 22.2101 17.5875C22.1955 20.227 20.1392 22.3562 17.5142 22.4437C17.5142 22.4291 17.5142 22.4291 17.4996 22.4291ZM17.3538 14.9041C15.8809 14.9041 14.6851 16.1 14.6851 17.5729C14.6851 19.0166 15.808 20.1833 17.2517 20.2416C17.2663 20.227 17.383 20.227 17.5142 20.2416C18.9288 20.1687 20.0226 19.002 20.0371 17.5729C20.0371 16.1145 18.8413 14.9041 17.3538 14.9041Z" fill="#A5ABB6"/>
<path d="M17.4998 33.1916C15.7498 33.1916 13.9998 32.7395 12.6435 31.8208C11.3602 30.9604 10.6165 29.7354 10.6165 28.4229C10.6165 27.125 11.3456 25.8708 12.6435 25.0104C15.3706 23.202 19.6435 23.202 22.356 25.0104C23.6394 25.8708 24.3831 27.0958 24.3831 28.4083C24.3831 29.7062 23.654 30.9604 22.356 31.8208C20.9998 32.725 19.2498 33.1916 17.4998 33.1916ZM13.854 26.8479C13.1685 27.3 12.804 27.8687 12.804 28.4375C12.804 29.0062 13.1831 29.5604 13.854 30.0125C15.8227 31.3395 19.1623 31.3395 21.131 30.0125C21.8165 29.5604 22.181 28.9916 22.181 28.4229C22.181 27.8541 21.8019 27.3 21.131 26.8479C19.1769 25.5208 15.8373 25.5354 13.854 26.8479Z" fill="#A5ABB6"/>
</svg>
